<?xml version="1.0" encoding="utf-8"?>
<!DOCTYPE svg PUBLIC "-//W3C//DTD SVG 1.1//EN" "http://www.w3.org/Graphics/SVG/1.1/DTD/svg11.dtd">
<svg version="1.1" id="Ebene_1" xmlns="http://www.w3.org/2000/svg" xmlns:xlink="http://www.w3.org/1999/xlink" x="0px" y="0px"
	 width="595.28px" height="841.89px" xml:space="preserve">
<g>
	<path fill="#282222" d="M119.162,263.39c-4.764,2.75-8.662,9.5-8.662,15v187.965c0,5.501,3.938,12.179,8.752,14.84l162.637,89.912
		c4.813,2.661,12.663,2.613,17.443-0.107l162.757-92.626c4.78-2.721,8.691-9.446,8.691-14.947V278.39
		c0-5.5-3.925-12.203-8.721-14.895l-165.216-92.73c-4.796-2.692-12.618-2.645-17.382,0.104L119.162,263.39z"/>
</g>
<g>
	<path fill="#F9F9F9" d="M172.692,291.806c-4.764,2.75-8.662,9.5-8.662,15v126.168c0,5.501,3.938,12.179,8.752,14.84l109.106,60.317
		c4.813,2.661,12.663,2.613,17.443-0.107l109.229-62.163c4.78-2.721,8.691-9.446,8.691-14.947V306.805
		c0-5.5-3.925-12.203-8.721-14.895L297.59,229.645c-4.796-2.692-12.618-2.645-17.382,0.104L172.692,291.806z"/>
</g>
<g>
	<g>
		<path fill="#FF4200" d="M217.692,319.367c-4.764,2.75-8.662,9.5-8.662,15v73.063c0,5.5,3.938,12.178,8.752,14.839l63.106,34.887
			c4.813,2.661,12.663,2.613,17.444-0.107l63.229-35.983c4.78-2.72,8.691-9.447,8.691-14.947v-71.751
			c0-5.5-3.925-12.203-8.721-14.895l-64.298-36.087c-4.797-2.692-12.619-2.645-17.383,0.104L217.692,319.367z"/>
	</g>
</g>
<path fill="none" stroke="#000000" stroke-miterlimit="10" d="M365,324.366"/>
<path fill="none" stroke="#000000" stroke-miterlimit="10" d="M209.031,324.366"/>
<path fill="none" stroke="#000000" stroke-miterlimit="10" d="M290.016,352"/>
<path fill="none" stroke="#000000" stroke-miterlimit="10" d="M290.016,460.543"/>
<path fill="#5B5B58" d="M164.031,431.178"/>
<path fill="#FFFFFF" d="M162.049,504.527"/>
<polygon fill="#F9F9F9" points="164.031,423.202 164.031,504.537 164.031,505.959 209.031,530.838 209.031,456.919 "/>
<path fill="none" d="M164.031,296.805"/>
</svg>
